
<svg height="1000" width="1000" xmlns="http://www.w3.org/2000/svg" xmlns:svg="http://www.w3.org/2000/svg" xmlns:xlink="http://www.w3.org/1999/xlink">
	<line x1="5" x2="55" y1="400" y2="400" stroke="black" stroke-width= "2"/>
	<text x="5" y="400" dy="-2" font-family="arial" font-size="20px" fill="red">0</text>
	<line x1="5" x2="55" y1="365" y2="365" stroke="black" stroke-width= "2"/>
	<text x="5" y="365" dy="-2" font-family="arial" font-size="20px" fill="red">0.065</text>
	<line x1="5" x2="55" y1="330" y2="330" stroke="black" stroke-width= "2"/>
	<text x="5" y="330" dy="-2" font-family="arial" font-size="20px" fill="red">0.13</text>
	<line x1="5" x2="55" y1="295" y2="295" stroke="black" stroke-width= "2"/>
	<text x="5" y="295" dy="-2" font-family="arial" font-size="20px" fill="red">0.195</text>
	<line x1="5" x2="55" y1="260" y2="260" stroke="black" stroke-width= "2"/>
	<text x="5" y="260" dy="-2" font-family="arial" font-size="20px" fill="red">0.26</text>
	<line x1="5" x2="55" y1="225" y2="225" stroke="black" stroke-width= "2"/>
	<text x="5" y="225" dy="-2" font-family="arial" font-size="20px" fill="red">0.325</text>
	<line x1="5" x2="55" y1="190" y2="190" stroke="black" stroke-width= "2"/>
	<text x="5" y="190" dy="-2" font-family="arial" font-size="20px" fill="red">0.39</text>
	<line x1="5" x2="55" y1="155" y2="155" stroke="black" stroke-width= "2"/>
	<text x="5" y="155" dy="-2" font-family="arial" font-size="20px" fill="red">0.455</text>
	<line x1="5" x2="55" y1="120" y2="120" stroke="black" stroke-width= "2"/>
	<text x="5" y="120" dy="-2" font-family="arial" font-size="20px" fill="red">0.52</text>
	<line x1="5" x2="55" y1="85" y2="85" stroke="black" stroke-width= "2"/>
	<text x="5" y="85" dy="-2" font-family="arial" font-size="20px" fill="red">0.585</text>
	<line x1="5" x2="55" y1="50" y2="50" stroke="black" stroke-width= "2"/>
	<text x="5" y="50" dy="-2" font-family="arial" font-size="20px" fill="red">0.65</text>
	<ellipse cx="500" cy="500" id="1-500-500" rx="100" ry="100" style="fill: none; fill-opacity: 0.52755905511811; stroke: rgb(127,127,127); stroke-opacity: 0.52755905511811; stroke-width: 1" />
	<ellipse cx="500" cy="500" id="2-500-500" rx="216.666666666667" ry="216.666666666667" style="fill: none; fill-opacity: 0.52755905511811; stroke: rgb(127,127,127); stroke-opacity: 0.52755905511811; stroke-width: 1" />
	<ellipse cx="500" cy="500" id="3-500-500" rx="333.333333333333" ry="333.333333333333" style="fill: none; fill-opacity: 0.52755905511811; stroke: rgb(127,127,127); stroke-opacity: 0.52755905511811; stroke-width: 1" />
	<ellipse cx="500" cy="500" id="4-500-500" rx="450" ry="450" style="fill: none; fill-opacity: 0.52755905511811; stroke: rgb(127,127,127); stroke-opacity: 0.52755905511811; stroke-width: 1" />
	<line id="5-542-524" style="fill: rgb(0,0,0); fill-opacity: 1.0; stroke: rgb(0,0,0); stroke-linecap: square; stroke-opacity: 1.0; stroke-width: 4" x1="542" x2="924" y1="524" y2="745" />
	<line id="6-457-524" style="fill: rgb(0,255,255); fill-opacity: 1.0; stroke: rgb(0,255,255); stroke-linecap: square; stroke-opacity: 1.0; stroke-width: 4" x1="457" x2="75" y1="524" y2="744" />
	<line id="7-499-451" style="fill: rgb(255,255,0); fill-opacity: 1.0; stroke: rgb(255,255,0); stroke-linecap: square; stroke-opacity: 1.0; stroke-width: 4" x1="499" x2="499" y1="451" y2="10" />
	<polygon id="8-672.000000004879-541.69872980937" points="672.000000004879,541.69872980937 622.000000002439,628.301270186405 864.000000002439,768.301270186405 914.000000004879,681.69872980937 " style="fill: rgb(0,128,0); fill-opacity: 1.0; stroke: rgb(0,128,0); stroke-opacity: 1.0; stroke-width: 1" />
	<polygon id="9-210.999999990242-724.30127019063" points="210.999999990242,724.30127019063 161.000000002439,637.698729805144 85.0000000024394,680.698729805144 134.999999990242,767.30127019063 " style="fill: rgb(0,128,0); fill-opacity: 1.0; stroke: rgb(0,128,0); stroke-opacity: 1.0; stroke-width: 1" />
	<polygon id="10-449-225.00000000845" points="449,225.00000000845 549,225 549,50 449,50.0000000084503 " style="fill: rgb(0,128,0); fill-opacity: 1.0; stroke: rgb(0,128,0); stroke-opacity: 1.0; stroke-width: 1" />
	<polygon id="11-611.000000004879-506.69872980937" points="611.000000004879,506.69872980937 561.000000002439,593.301270186405 622.000000002439,628.301270186405 672.000000004879,541.69872980937 " style="fill: rgb(255,0,0); fill-opacity: 1.0; stroke: rgb(255,0,0); stroke-opacity: 1.0; stroke-width: 1" />
	<polygon id="12-437.999999990242-592.30127019063" points="437.999999990242,592.30127019063 388.000000002439,505.698729805144 161.000000002439,637.698729805144 210.999999990242,724.30127019063 " style="fill: rgb(255,0,0); fill-opacity: 1.0; stroke: rgb(255,0,0); stroke-opacity: 1.0; stroke-width: 1" />
	<polygon id="13-449-400.00000000845" points="449,400.00000000845 549,400 549,225 449,225.00000000845 " style="fill: rgb(255,0,0); fill-opacity: 1.0; stroke: rgb(255,0,0); stroke-opacity: 1.0; stroke-width: 1" />
	<!--
	Generated using the Perl SVG Module V2.84
	by Ronan Oger
	Info: http://www.roitsystems.com/
	-->
</svg>