
<svg height="10000" width="10000" xmlns="http://www.w3.org/2000/svg" xmlns:svg="http://www.w3.org/2000/svg" xmlns:xlink="http://www.w3.org/1999/xlink">
	<ellipse cx="5000" cy="5000" id="1-5000-5000" rx="1000" ry="1000" style="fill: none; fill-opacity: 1.0; stroke: rgb(0,0,0); stroke-opacity: 1.0; stroke-width: 5" />
	<ellipse cx="5000" cy="5000" id="2-5000-5000" rx="1350" ry="1350" style="fill: none; fill-opacity: 0.52755905511811; stroke: rgb(127,127,127); stroke-opacity: 0.52755905511811; stroke-width: 3" />
	<ellipse cx="5000" cy="5000" id="3-5000-5000" rx="1700" ry="1700" style="fill: none; fill-opacity: 1.0; stroke: rgb(0,0,0); stroke-opacity: 1.0; stroke-width: 5" />
	<ellipse cx="5000" cy="5000" id="4-5000-5000" rx="2050" ry="2050" style="fill: none; fill-opacity: 0.52755905511811; stroke: rgb(127,127,127); stroke-opacity: 0.52755905511811; stroke-width: 3" />
	<ellipse cx="5000" cy="5000" id="5-5000-5000" rx="2400" ry="2400" style="fill: none; fill-opacity: 1.0; stroke: rgb(0,0,0); stroke-opacity: 1.0; stroke-width: 5" />
	<ellipse cx="5000" cy="5000" id="6-5000-5000" rx="2750" ry="2750" style="fill: none; fill-opacity: 0.52755905511811; stroke: rgb(127,127,127); stroke-opacity: 0.52755905511811; stroke-width: 3" />
	<ellipse cx="5000" cy="5000" id="7-5000-5000" rx="3100" ry="3100" style="fill: none; fill-opacity: 1.0; stroke: rgb(0,0,0); stroke-opacity: 1.0; stroke-width: 5" />
	<ellipse cx="5000" cy="5000" id="8-5000-5000" rx="3450" ry="3450" style="fill: none; fill-opacity: 0.52755905511811; stroke: rgb(127,127,127); stroke-opacity: 0.52755905511811; stroke-width: 3" />
	<ellipse cx="5000" cy="5000" id="9-5000-5000" rx="3800" ry="3800" style="fill: none; fill-opacity: 1.0; stroke: rgb(0,0,0); stroke-opacity: 1.0; stroke-width: 5" />
	<ellipse cx="5000" cy="5000" id="10-5000-5000" rx="4150" ry="4150" style="fill: none; fill-opacity: 0.52755905511811; stroke: rgb(127,127,127); stroke-opacity: 0.52755905511811; stroke-width: 3" />
	<ellipse cx="5000" cy="5000" id="11-5000-5000" rx="4500" ry="4500" style="fill: none; fill-opacity: 1.0; stroke: rgb(0,0,0); stroke-opacity: 1.0; stroke-width: 5" />
	<line id="12-4999-4250" style="fill: rgb(0,0,0); fill-opacity: 1.0; stroke: rgb(0,0,0); stroke-linecap: square; stroke-opacity: 1.0; stroke-width: 40" x1="4999" x2="4999" y1="4250" y2="250" />
	<line id="13-5649-5375" style="fill: rgb(0,0,0); fill-opacity: 1.0; stroke: rgb(0,0,0); stroke-linecap: square; stroke-opacity: 1.0; stroke-width: 40" x1="5649" x2="9113" y1="5375" y2="7375" />
	<line id="14-4350-5374" style="fill: rgb(0,0,0); fill-opacity: 1.0; stroke: rgb(0,0,0); stroke-linecap: square; stroke-opacity: 1.0; stroke-width: 40" x1="4350" x2="886" y1="5374" y2="7374" />
	<polygon id="15-6371-6023" points="6371,6023 6371,6023 6359.23706583329,6037.35953693975 6345.79636593741,6052.98533830307 6330.77801210492,6069.70852712339 6314.27548429025,6087.37397847699 6296.37631360191,6105.84058303594 6277.16275748198,6124.98175134013 6256.71244355933,6144.68603640666 6235.09896367125,6164.85777320291 6212.39240404722,6185.41765250452 6188.65980166777,6206.30316383802 6163.96552037507,6227.46885766374 6138.3715434493,6248.88639078164 6111.93768209814,6270.54433122955 6084.72170166441,6292.44770977943 6056.77936935976,6314.61731460768 6028.16442900655,6337.08873390389 5998.92850963782,6359.91115817171 5969.12097588778,6383.14595984262 5938.78872892645,6406.86507264841 5907.97596727057,6431.1491970535 5876.72391716113,6456.08586100937 5845.07054235394,6481.76736742838 5813.05024314406,6508.28866115399 5780.69355425462,6535.74514889417 5748.0268508851,6564.23050564862 5715.07207174893,6593.83450066117 5681.84646735289,6624.6408749256 5648.3623810974,6656.72530082469 5614.62707002087,6690.15345264279 5580.6425711897,6724.97921451649 5546.40561886045,6761.24304992656 5511.90761662628,6798.97055413618 5477.13466781826,6838.17120809272 5442.06766647553,6878.83734927798 5406.68245023887,6920.94337185708 5370.9500155683,6964.44516527907 5334.83679475025,7009.27979726252 5298.30499324999,7055.36544389124 5261.31298509103,7102.60156638387 5223.8157631123,7150.86933101743 5185.76544017411,7200.03226570995 5147.11179666142,7249.93714392589 5107.80286897452,7300.41508388855 5067.78557310796,7351.28284858659 5027.00635690362,7402.34432976965 4985.41187412738,7453.39219705869 4942.94967316379,7504.20969146717 4899.56889285451,7554.57254105406 4855.22095782276,7604.25097512036 4809.86026553369,7653.01181232851 4763.44485733608,7700.62059737596 4715.9370658182,7746.84376039625 4667.3041309867,7791.45077309651 4617.51877804348,7834.21627577179 4566.55974988811,7874.9221497614 4514.41228791203,7913.35951062996 4461.06855517094,7949.33059835872 4406.52799662138,7982.65054211581 4350.79763178116,8013.14897872593 4293.89227591749,8040.67150577117 4235.83468667403,8065.0809523092 4176.65563391515,8086.25845247925 4116.39389148277,8104.10430976015 4055.09615052344,8118.53864232945 3992.81685504083,8129.50180282475 3929.61796135413,8136.95456880444 3865.56862418595,8140.87810331672 3800.74481315435,8141.2736881863 3735.22886449224,8138.16223588432 3669.10897385178,8131.58358912696 3602.47863706032,8121.59562061634 3535.43604666451,8108.27314855517 3468.08345301802,8091.70668669612 3400.52649952132,8072.00105068393 3332.87354239523,8049.27384527142 3265.23496604788,8023.65385959101 3197.72250566165,7995.27939999462 3130.44858906631,7964.29659198532 3063.52571025963,7930.85768440139 2997.06584706942,7895.11939022295 2931.1799354033,7857.24129909508 2865.9774122848,7817.38439684141 2801.56583940752,7775.70972681595 2738.05061823252,7732.37722684562 2675.53480668698,7687.54477368549 2614.11904627235,7641.36746427552 2553.90160683639,7593.99715958089 2494.9785543819,7545.58231234693 2437.44404505233,7496.26809462803 2381.39074582673,7446.19683438275 2326.91037944869,7395.50876268513 2274.09438768035,7344.34306410406 2223.03470308787,7292.83921246587 2173.8246152004,7241.13856245433 2126.55971201585,7189.38615422995 2081.33887242266,7137.7326733771 2038.26527914056,7086.33649192176 1997.44741522513,7035.3656978097 1959,6985 1959,6985 1201,7422 1201,7422 1251.49785870919,7488.77434395066 1304.68458250923,7555.85609350627 1360.43847082435,7623.06031630311 1418.64405424883,7690.2151385065 1479.19104477729,7757.16092318268 1541.97322601819,7823.7495172437 1606.88734054175,7889.84355988324 1673.83202131154,7955.31584597989 1742.70680489144,8020.04873847737 1813.41125575985,8083.93362425885 1885.84422355246,8146.87040851422 1959.90324834905,8208.76704305798 2035.48412317267,8269.53908448853 2112.4806176382,8329.10927849086 2190.78436212917,8387.40716697233 2270.28488795399,8444.36871508625 2350.86981559698,8499.93595554253 2432.42518039433,8554.05664792641 2514.83588269334,8606.68395104878 2597.98624775724,8657.77610663299 2681.76067932173,8707.29613290563 2766.04438975702,8755.21152690176 2850.72418920846,8801.49397452004 2935.68931584474,8846.11906757022 3020.83228940489,8889.06602724496 3106.04977057214,8930.31743362086 3191.24340928533,8969.85896095036 3276.32066589723,9007.67911864718 3361.19559007741,9043.76899799397 3445.78954350798,9078.12202471232 3530.03185370873,9110.73371763296 3613.86038772923,9141.60145378824 3697.22203593626,9170.72424032019 3780.07309768357,9198.102493657 3862.37956225623,9223.73782645847 3944.11728011326,9247.63284286716 4025.27202109208,9269.79094262833 4105.83941786752,9290.21613465824 4185.82479456083,9308.91286064693 4265.24288195408,9325.88582927987 4344.11742226865,9341.13986165324 4422.48066789873,9354.67974843998 4500.37277984051,9366.51011933921 4577.84113281275,9376.63532531108 4654.93953521539,9385.05933406269 4731.72737310942,9391.7856392087 4808.26868831658,9396.8171834842 4884.63120152362,9400.15629633731 4960.88529192731,9401.80464617531 5037.10294546808,9401.76320748141 5113.3566840687,9400.03224296141 5189.71848851658,9396.61130081893 5266.2587277027,9391.49922719703 5343.04510685655,9384.6941937627 5420.14164719482,9376.19374034958 5497.60770903397,9365.99483251424 5575.49706990587,9354.09393380229 5653.85706856474,9340.48709246445 5732.72782498854,9325.17004230861 5812.14154556336,9308.13831732343 5892.12192160332,9289.3873796626 5972.68362820886,9268.91276053706 6053.83192921167,9246.71021352551 6135.56239260613,9222.77587978307 6217.86071943539,9197.10646460325 6300.70268759843,9169.69942477152 6384.05421048507,9140.55316613888 6467.87150874454,9109.66725084316 6552.10139186509,9077.04261361313 6636.68164460362,9042.68178660865 6721.54151167385,9006.58913227738 6806.60227249786,8968.77108374768 6891.77789626851,8929.23639232758 6976.97576608098,8887.99638174202 7062.09745949195,8845.06520881642 7147.0395715787,8800.46013040303 7231.69456542107,8754.20177645006 7315.95163394298,8706.31442923098 7399.69755625329,8656.8263088853 7482.81753104517,8605.76986557096 7565.19596927815,8553.1820786951 7646.71722830759,8499.10476387374 7727.26626987157,8443.58488847195 7806.72922492946,8386.67489679745 7884.99384930031,8328.43304625997 7961.94985540865,8268.92375606863 8037.48910724338,8208.21797032057 8111.50566791076,8146.3935376362 8183.89569194997,8083.53560982023 8254.55715791925,8019.73706237523 8323.38944069097,7955.0989400643 8390.29272745582,7889.73093111418 8455.16728667099,7823.75187406953 8517.91260513805,7757.29030175336 8578.42641510554,7690.48502726002 8636.60364080626,7623.48577740437 8692.33530220268,7556.45387957619 8745.50742297595,7489.56300850218 8796,7423 8796,7423 " style="fill: rgb(0,0,0); fill-opacity: 0.68503937007874; stroke: rgb(0,0,0); stroke-opacity: 0.68503937007874; stroke-width: 1" />
	<polygon id="16-4799-2250" points="4799,2250 4799,2250 4756.46086029833,2255.67219941256 4712.10012611671,2262.68388250148 4666.12447291472,2271.0272937556 4618.72567325159,2280.69381687183 4570.08131769564,2291.67341206865 4520.35541750114,2303.95396440669 4469.69892255752,2317.5206036114 4418.25018302384,2332.3550451377 4366.13537841172,2348.43499246415 4313.46893364952,2365.73363180412 4260.35393782792,2384.21924252207 4206.88257787399,2403.85493949676 4153.13659630345,2424.59855743077 4099.18777944396,2446.40268162188 4045.09848008258,2469.21482493964 3990.92217635218,2492.97774664644 3936.70406681525,2517.62990522299 3882.48170011119,2543.10603446121 3828.28563618826,2569.33782973256 3774.14013502628,2596.25472948628 3720.06386785558,2623.78477564248 3666.07064517427,2651.85553558062 3612.17015534568,2680.39506785005 3558.36870720493,2709.33291350901 3504.6699699039,2738.60109509961 3451.0757031631,2768.13510565475 3397.58647116401,2797.87487077776 3344.20233349275,2827.76566770604 3290.92350682333,2857.75898633692 3237.75099139357,2887.81331842908 3184.68715676778,2917.89486256943 3131.73628188644,2947.97813398739 3078.90504496266,2978.04646988095 3026.2029593893,3008.09242256944 2973.64275245844,3038.11803448262 2921.24068435725,3068.13499071475 2869.01680558281,3098.16464659472 2816.99515160425,3128.23792943125 2765.20387428583,3158.39511526642 2713.675310262,3188.68548309667 2662.44598711788,3219.16685058083 2611.55656886969,3249.90499673696 2561.05174285303,3280.97297851925 2510.98005070728,3312.45034945251 2461.39366668679,3344.42228967328 2412.34812702848,3376.97865777367 2363.90201455804,3410.21297575878 2316.11660311844,3444.22135920371 2269.05546675175,3479.10140532467 2222.78405885638,3514.95105215728 2177.3692667732,3551.86742235831 2132.87894742526,3589.94566531362 2089.38144974378,3629.27781124252 2046.94512965888,3669.95165083751 2005.63786341508,3712.04965366885 1965.52656488971,3755.64793811795 1926.67671244752,3800.81530498522 1889.15189065783,3847.61234615114 1853.0133519327,3896.09063875932 1818.31960281853,3946.29203434457 1785.1260192903,3998.24805115362 1753.48449496185,4051.97937661288 1723.44312563868,4107.4954854933 1695.04593310711,4164.79437782166 1668.33263047852,4223.86243900007 1643.33843079476,4284.67442293688 1620.09389995622,4347.19355727619 1598.62485436245,4411.3717680559 1578.95230296366,4477.15001934331 1561.09243271537,4544.45876161034 1545.05663571625,4613.21848083733 1530.85157559714,4683.3403385956 1518.47929002619,4754.72689167625 1507.93732550925,4827.27287822897 1499.21890000456,4900.86605587396 1492.31308824686,4975.38807587781 1487.20502409674,5050.71537626682 1483.87611370834,5126.7200757156 1482.30425285155,5203.27084922518 1482.46404134618,5280.23376602109 1484.32698727669,5357.47306979085 1487.861693468,5434.85188137325 1493.03401863079,5512.23280434202 1499.80720563866,5589.47841462925 1508.14196959596,5666.45161644411 1517.99653870615,5743.01584829747 1529.32664147187,5819.03512498038 1542.08543446379,5894.37390390402 1556.22336580214,5968.89676733002 1571.68797061735,6042.46791574545 1588.42359611238,6114.95047200792 1606.3710554542,6186.20560094821 1625.46721159486,6256.09145491404 1645.64449427981,6324.46196231685 1666.83035596161,6391.16548364956 1688.94667512007,6456.0433677269 1711.90911861354,6518.92845010946 1735.62647817093,6579.64354586041 1760,6638 1760,6638 1002,7075 1002,7075 969.495664480374,6998.12239492315 938.054424273961,6918.74005133461 907.777526190639,6837.0523203974 878.757907162477,6753.24662830504 851.080376194949,6667.49977620476 824.821708283091,6579.97926146594 800.050684945533,6490.84457392731 776.828110434837,6400.24842934545 755.206827584647,6308.33791005021 735.231752628363,6215.25548982933 716.939944146007,6121.13992635461 700.360717542584,6026.12701006804 685.515813109217,5930.35016340274 672.419622745477,5833.94088856228 661.079477805646,5737.02906585649 651.495998251767,5639.74310782959 643.663501331688,5542.20997715257 637.570466330215,5444.55507851851 633.200050546734,5346.90203661186 630.530650513653,5249.37237365137 629.536501568363,5152.08510106298 630.188308208952,5055.1562405538 632.453897183036,4958.69829026011 636.298884962879,4862.81965176029 641.687351131918,4767.62403360384 648.58250923192,4673.20984663806 656.947366781072,4579.66960583859 666.745366456226,4487.08935259475 677.941000823238,4395.54811048787 690.500393483878,4305.11738655415 704.391840073114,4215.86072886447 719.586303173801,4127.83335000243 736.057855904983,4041.08182469926 753.784069673403,3955.6438685084 772.746342344417,3871.54820299218 792.930163877789,3788.81451146431 814.325317275806,3707.45348790143 836.926013496405,3627.46698022078 860.73095978358,3548.84822773091 885.743361652929,3471.58219121467 911.97085953401,3395.64597280843 939.425401805838,3321.00932161126 968.123056660736,3247.63521980235 998.08376588862,3175.4805429749 1029.33104428296,3104.49678741743 1061.89162892607,3034.63085619717 1095.79508311043,2965.82589513205 1131.07336009041,2898.02216908275 1167.76033223151,2831.15796845974 1205.89129142939,2765.17053542603 1245.50242690532,2699.99699898711 1286.6302866478,2635.57530799802 1329.31122885904,2571.84515108399 1373.58086977994,2508.74885256611 1419.47353420812,2446.23223370647 1467.02171488967,2384.24542893624 1516.25554675842,2322.74364720205 1567.2023017179,2261.6878691586 1619.88590931217,2201.0454716422 1674.3265082152,2140.79077167756 1730.54003298773,2080.90548319006 1788.53784000853,2021.37908061265 1848.32637588783,1962.20906468041 1909.90689101988,1903.40112688862 1973.27520023296,1844.96921034131 2038.42149175543,1786.93546602539 2105.33018494165,1729.33010489901 2173.97983639779,1672.19114756861 2244.34309332369,1615.56407473298 2316.38669204873,1559.50138298026 2390.07149889761,1504.06205191896 2465.35258968348,1449.31092999001 2542.17936330133,1395.31804762636 2620.49568409342,1342.15786768051 2700.24004689219,1289.90848420971 2781.34575792434,1238.6507817718 2863.7411240958,1188.46756832219 2947.34964258217,1139.4426955899 3032.09018213591,1091.66018142587 3117.87714710411,1045.20334903563 3204.62061484123,1000.15399820502 3292.2264370166,956.591623576398 3380.59629526857,914.592694706602 3469.62770176454,874.230012008663 3559.21393550218,835.572151717941 3649.24390564986,798.683011700394 3739.60193389057,763.621468204961 3830.1674486202,730.441151522017 3920.81458497746,699.190345912742 4011.41168606626,669.912016086509 4101.82070239226,642.643958890338 4191.89648849301,617.419074700821 4281.48599801547,594.265748237964 4370.42738110746,573.208323115021 4458.54899096154,554.267648360106 4545.66830970269,537.46166835502 4631.59080756829,522.806020094087 4716.10875351238,510.314593329731 4799,500 4799,500 " style="fill: rgb(0,0,0); fill-opacity: 0.68503937007874; stroke: rgb(0,0,0); stroke-opacity: 0.68503937007874; stroke-width: 1" />
	<polygon id="17-5199-2249" points="5199,2249 5199,2249 5241.64480501964,2254.77786596599 5286.10090830301,2261.884992557 5332.16215557235,2270.31474606078 5379.63621599709,2280.06013053574 5428.34290634012,2291.11376264626 5478.11246423768,2303.46783838863 5528.78383891955,2317.11409096456 5580.20305538798,2332.0437395878 5632.22169692212,2348.24742946577 5684.69554070235,2365.71516358571 5737.48337229829,2384.43622725805 5790.44599668189,2404.39910663421 5843.44545625802,2425.59140262435 5896.34446009713,2447.99974179815 5949.00602305733,2471.60968596187 6001.29330874524,2496.40564217185 6053.06966623994,2522.37077497198 6104.19884714206,2549.48692263397 6154.54538676765,2577.73451913833 6203.97513113624,2607.09252356419 6252.35588976372,2637.53835846002 6299.55819311891,2669.04785864973 6345.45613289879,2701.59523179042 6389.92826298104,2735.15303184426 6432.85853898552,2769.69214645888 6474.137274782,2805.1817990717 6513.66209498361,2841.58956636605 6551.33886343092,2878.88141151372 6587.08256886534,2917.02173344097 6620.81815038294,2955.97343215652 6652.48124681863,2995.69798998188 6682.01885590808,3036.15556832877 6709.38989088159,3077.30511947705 6734.56562403514,3119.1045126216 6757.53000877256,3161.51067327937 6778.27987359561,3204.47973497934 6796.8249835134,3247.9672020008 6813.18796632708,3291.92812177966 6827.40410319968,3336.31726546969 6839.52098482656,3381.08931502653 6849.5980363609,3426.19905507881 6857.70591600417,3471.60156776201 6863.92579383043,3517.25242861877 6868.34851895963,3563.10790161404 6871.07368461869,3609.12513127527 6872.20860191701,3655.26232994759 6871.8671943068,3701.47895815032 6870.16882568911,3747.73589603664 6867.23707595665,3793.99560399008 6863.19847842784,3840.22227044143 6858.18123412036,3886.38194505665 6852.31391813056,3932.44265553001 6845.7241935279,3978.37450631608 6838.53754813956,4024.14975774982 6830.8760693891,4069.74288413347 6822.85727196809,4115.13060951286 6814.59299256304,4160.29192002171 6806.18836513609,4205.20805184076 6797.74088937323,4249.86245399632 6789.33960387493,4294.24072541021 6781.06437447894,4338.33052580727 6772.98530678401,4382.12146028695 6765.16229049691,4425.60493756948 6757.64468166514,4468.77400213364 6750.47112719894,4511.62314066932 6743.66953434153,4554.14806347271 6737.25718593399,4596.34546161194 6731.24100045648,4638.21274088485 6725.61793393078,4679.74773377492 6720.37551885877,4720.9483907845 6715.4925334705,4761.81245268294 6710.93979268481,4802.33710534866 6706.68105036989,4842.51861900542 6702.67400075589,4882.35197375107 6698.87136522214,4921.83047334857 6695.22204918685,4960.94534929115 6691.67235249519,4999.68535716202 6688.16721556319,5038.03636728094 6684.65148262161,5075.98095156191 6681.07116274865,5113.49796839331 6677.37466901699,5150.56214719122 6673.51401604503,5187.14367406407 6669.44595657114,5223.20777975721 6665.13303840087,5258.71433071684 6660.5445642501,5293.61742371757 6655.65743866286,5327.86498403446 6650.4568883624,5361.39836660132 6644.93704514179,5394.15195898094 6639.10138376025,5426.05278427122 6632.96301132933,5457.02010128243 6626.54480939613,5486.96499843687 6619.87943540746,5515.78997686007 6613.00919651854,5543.38851704568 6605.98581584453,5569.64462227952 6598.87011929355,5594.43233069574 6591.73168012098,5617.61518640481 6584.64846836102,5639.04565857228 6577.7065633785,5658.56449563395 6571,5676 6571,5676 8996,7076 8996,7076 9028.49905388114,6998.91650443455 9059.9256924471,6919.35897555318 9090.18037262106,6837.52394997299 9119.17166569603,6753.59620154057 9146.81609742867,6667.7500384244 9173.03807372178,6580.15062073065 9197.7698574604,6490.95525243385 9220.95156764762,6400.31460998606 9242.531177071,6308.37387773417 9262.46448934463,6215.27376727635 9280.7150803372,6121.15140416509 9297.25419273916,6026.14107095691 9312.06057586248,5930.37480055385 9325.12026572907,5833.98281811959 9336.42630310982,5737.09383361795 9345.97838944532,5639.83519025024 9353.78248253626,5542.33287679625 9359.85033555111,5444.7114141231 9364.19898428641,5347.09362795242 9366.85018874468,5249.60032139912 9367.82983598999,5152.3498618469 9367.1673119158,5055.4576974361 9364.89485003372,4959.03581883772 9361.04686568183,4863.19218210212 9355.65928417284,4768.03010822888 9348.76887137234,4673.64767473213 9340.41257503122,4580.1371138992 9330.62688490825,4487.58423168329 9319.44721932307,4396.06786025766 9306.90734529112,4305.65935621138 9293.03883882262,4216.42215520725 9277.87059133074,4128.41139267157 9261.42836740109,4041.67359876261 9243.73441843859,3956.2464744896 9224.80715593808,3872.15875444408 9204.66088733307,3789.43016017723 9183.30561657271,3708.07144682792 9160.74691077013,3628.08454418983 9136.98583346352,3549.46279201812 9112.01894424403,3472.19126802849 9085.83836374022,3396.24720574787 9058.43190221208,3321.60049814655 9029.78324930851,3248.2142818275 8999.87222188435,3176.04559547924 8968.67506616371,3105.04610532271 8936.16480997915,3035.16288940706 8902.3116603176,2966.33927184216 8867.0834409661,2898.51569740119 8830.446064678,2831.63063639104 8792.3640339754,2765.62150927455 8752.80096446962,2700.4256202398 8711.72012441953,2635.98108875076 8669.08498415887,2572.22776807985 8624.8597690096,2509.10813991877 8579.01000935889,2446.56817438631 8531.50308171161,2384.55814510093 8482.30873473859,2323.03338945788 8431.39959462053,2261.9550048419 8378.75164433777,2201.29047221381 8324.34467197353,2141.01419932524 8268.16268358078,2081.10797673555 8210.19427670573,2021.56134082064 8150.43297126135,1962.3718390661 8088.87749509685,1903.54519411911 8025.53202230833,1845.09536432307 7960.40636307699,1787.04449976573 7893.51610459742,1729.42279422404 7824.88270346264,1672.26823477275 7754.53353069825,1615.62625222665 7682.50187147657,1559.54927699182 7608.82688238447,1504.09620629536 7533.55350995815,1449.33179012705 7456.73237502265,1395.32594454454 7378.41962817555,1342.15300224588 7298.67678252117,1289.89091148112 7217.57053048266,1238.6203954368 7135.17255218382,1188.42408516311 7051.55932348688,1139.38563989992 6966.81193228527,1091.58886927243 6881.01591206699,1045.11687224501 6794.26110207237,1000.05120791803 6706.64154355378,956.47111320096 6618.25542169015,914.452782068849 6529.20506260088,874.068720480277 6439.59699462462,835.387190074388 6349.54208256344,798.471752442581 6259.15574292362,763.380924056301 6168.55824729433,730.167949794292 6077.87511987542,698.880700418046 5987.23763377791,669.561696259441 5896.78340905522,642.248255775186 5806.6571134609,616.972763453201 5717.01126464836,593.763046790109 5628.00712990982,572.642846659244 5539.81571657352,553.63235931673 5452.61884281806,536.748821510071 5366.61027489877,522.007102619136 5281.99691258938,509.420259432435 5199,499 5199,499 " style="fill: rgb(0,0,0); fill-opacity: 0.68503937007874; stroke: rgb(0,0,0); stroke-opacity: 0.68503937007874; stroke-width: 1" />
	<polygon id="18-4799-4000" points="4799,4000 4799,4000 4796.71242979388,4001.02996269021 4792.42718271977,4002.5629253964 4786.33270603045,4004.59678041442 4778.60351113386,4007.12926616091 4769.40118734429,4010.15783712074 4758.8753690248,4013.67951483364 4747.1646523642,4017.69073220652 4734.39745908425,4022.18718130742 4720.69284532006,4027.16367286223 4706.16125476412,4032.61401392655 4690.90521591689,4038.53090863134 4675.01998395093,4044.90588549481 4658.59412827445,4051.72925354311 4641.71006738095,4058.9900883813 4624.44455299743,4066.67624839427 4606.86910590036,4074.77442042592 4589.05040606058,4083.27019357686 4571.05064000929,4092.14815916615 4552.92780849338,4101.39203441516 4534.73599761146,4110.98480702243 4516.52561669864,4120.90889750053 4498.34360626038,4131.14633593244 4480.23361924865,4141.67894966765 4462.23617893052,4152.4885584121 4444.38881652379,4163.55717316275 4426.72619166978,4174.86719549172 4409.2801986836,4186.4016137904 4392.08006137014,4198.14419323437 4375.15241902247,4210.07965641965 4358.52140603192,4222.19385184502 4342.20872733841,4234.47390766771 4326.2337317381,4246.90836843585 4310.61348484592,4259.48731279672 4295.36284328593,4272.20245048896 4280.49453145421,4285.04719724677 4266.01922197019,4298.0167265689 4251.94562070434,4311.10799763267 4238.28055704596,4324.31975895831 4225.02907985471,4337.65252774892 4212.19455932702,4351.10854514234 4199.77879480378,4364.69170791122 4187.78212835112,4378.40747743263 4176.20356376218,4392.26276701636 4165.04089045679,4406.26580893029 4154.29081159802,4420.42600268771 4143.949075601,4434.75374636553 4134.01061008137,4449.2602529002 4124.46965717836,4463.95735346001 4115.31990909186,4478.85729011596 4106.55464259388,4493.97250012785 4098.16685121366,4509.31539422701 4090.14937375155,4524.89813131113 4082.49501775056,4540.73239197023 4075.19667654575,4556.82915323466 4068.24743852011,4573.19846687797 4061.64068722151,4589.84924351749 4055.37019103742,4606.78904463652 4049.43018118255,4624.0238845025 4043.8154168286,4641.55804377868 4038.52123629355,4659.39389642124 4033.54359331007,4677.53175122367 4028.87907750751,4695.96970911476 4024.52491836799,4714.70353703893 4020.47897205327,4733.72655894962 4016.73969064426,4753.02956413021 4013.30607348699,4772.6007327248 4010.17760049627,4792.42557801641 4007.35414742937,4812.48690463515 4004.83588330495,4832.76478151704 4002.62315030455,4853.23652806883 4000.7163266537,4873.87671162909 3999.11567313475,4894.65715395433 3997.82116403037,4915.54694410593 3996.83230343469,4936.51245477234 3996.14792799323,4957.517358737 3995.76599724252,4978.5226418994 3995.68337281064,4999.48660898046 3995.8955878096,5020.36487779826 3996.39660779462,5041.11035779257 3997.17858468214,5061.67320831075 3998.23160500299,5082.00077205075 3999.54343381712,5102.03747899423 4001.09925552721,5121.72471616043 4002.88141269648,5141.00065857676 4004.86914379804,5159.80005700068 4007.03832059352,5178.05397814721 4009.36118555483,5195.68949348371 4011.80608939963,5212.62931305654 4014.33722840338,5228.79136131953 4016.91438067586,5244.08829255085 4019.49264004078,5258.42694417945 4022.02214553096,5271.70772720447 4024.4478038014,5283.82395388826 4026.70900096549,5294.66110404518 4028.73929946817,5304.09603254293 4030.46611462069,5311.99612208984 4031.8103643277,5318.21838700999 4032.68608433405,5322.60853551725 4033,5325 4033,5325 1760,6638 1760,6638 1735.62647817093,6579.64354586041 1711.90911861354,6518.92845010946 1688.94667512007,6456.0433677269 1666.83035596161,6391.16548364956 1645.64449427981,6324.46196231685 1625.46721159486,6256.09145491405 1606.3710554542,6186.20560094821 1588.42359611238,6114.95047200793 1571.68797061735,6042.46791574544 1556.22336580214,5968.89676733002 1542.08543446379,5894.37390390401 1529.32664147187,5819.03512498038 1517.99653870615,5743.01584829748 1508.14196959596,5666.45161644411 1499.80720563866,5589.47841462925 1493.03401863079,5512.23280434202 1487.861693468,5434.85188137325 1484.32698727669,5357.47306979085 1482.46404134618,5280.23376602109 1482.30425285155,5203.27084922519 1483.87611370834,5126.7200757156 1487.20502409674,5050.71537626682 1492.31308824686,4975.38807587782 1499.21890000456,4900.86605587396 1507.93732550925,4827.27287822897 1518.47929002619,4754.72689167625 1530.85157559714,4683.3403385956 1545.05663571625,4613.21848083733 1561.09243271537,4544.45876161034 1578.95230296366,4477.15001934331 1598.62485436245,4411.3717680559 1620.09389995622,4347.19355727619 1643.33843079476,4284.67442293689 1668.33263047852,4223.86243900007 1695.04593310711,4164.79437782166 1723.44312563868,4107.4954854933 1753.48449496185,4051.97937661288 1785.1260192903,3998.24805115362 1818.31960281853,3946.29203434457 1853.0133519327,3896.09063875933 1889.15189065783,3847.61234615114 1926.67671244752,3800.81530498522 1965.52656488971,3755.64793811795 2005.63786341508,3712.04965366885 2046.94512965888,3669.95165083751 2089.38144974378,3629.27781124252 2132.87894742527,3589.94566531362 2177.3692667732,3551.86742235831 2222.78405885638,3514.95105215727 2269.05546675176,3479.10140532467 2316.11660311844,3444.22135920371 2363.90201455804,3410.21297575878 2412.34812702848,3376.97865777367 2461.39366668679,3344.42228967328 2510.98005070728,3312.45034945251 2561.05174285303,3280.97297851925 2611.55656886969,3249.90499673696 2662.44598711788,3219.16685058083 2713.675310262,3188.68548309667 2765.20387428583,3158.39511526642 2816.99515160425,3128.23792943125 2869.01680558281,3098.16464659472 2921.24068435725,3068.13499071475 2973.64275245844,3038.11803448262 3026.2029593893,3008.09242256944 3078.90504496266,2978.04646988095 3131.73628188644,2947.97813398739 3184.68715676778,2917.89486256943 3237.75099139357,2887.81331842908 3290.92350682333,2857.75898633692 3344.20233349275,2827.76566770604 3397.58647116401,2797.87487077776 3451.0757031631,2768.13510565475 3504.6699699039,2738.60109509961 3558.36870720493,2709.33291350901 3612.17015534568,2680.39506785005 3666.07064517427,2651.85553558062 3720.06386785558,2623.78477564248 3774.14013502628,2596.25472948628 3828.28563618826,2569.33782973256 3882.4817001112,2543.10603446121 3936.70406681525,2517.62990522299 3990.92217635218,2492.97774664645 4045.09848008258,2469.21482493964 4099.18777944396,2446.40268162188 4153.13659630344,2424.59855743077 4206.88257787399,2403.85493949676 4260.35393782792,2384.21924252207 4313.46893364951,2365.73363180411 4366.13537841173,2348.43499246415 4418.25018302383,2332.3550451377 4469.69892255752,2317.5206036114 4520.35541750113,2303.95396440669 4570.08131769564,2291.67341206865 4618.72567325159,2280.69381687183 4666.12447291472,2271.0272937556 4712.10012611671,2262.68388250148 4756.46086029833,2255.67219941256 4799,2250 4799,2250 " style="fill: rgb(0,0,0); fill-opacity: 0.68503937007874; stroke: rgb(0,0,0); stroke-opacity: 0.68503937007874; stroke-width: 1" />
	<polygon id="19-5199-3999" points="5199,3999 5199,3999 5201.39323630788,4000.13562879292 5205.77389974729,4001.76400792103 5211.95444649031,4003.88393356252 5219.7611964012,4006.49397706731 5229.03332367299,4009.59236043417 5239.62189363903,4013.17681258907 5251.38894958968,4017.24441870168 5264.20665236311,4021.79147265883 5277.95647452371,4026.81334089094 5292.52845008767,4032.3043440085 5307.82047999483,4038.25766114123 5323.73769285665,4044.66526047368 5340.19185992429,4051.5178582283 5357.10086271564,4058.80490725121 5374.38821130848,4066.51461539877 5391.98261094623,4074.63399309577 5409.8175743067,4083.14892873052 5427.83107654899,4092.04428996 5445.96525007511,4101.30404851203 5464.16611581585,4110.91142568314 5482.38334777198,4120.84905543355 5500.57006750664,4131.09916176633 5518.68266529026,4141.64374694057 5536.6806446406,4152.46478700081 5554.5264870748,4163.54443110019 5572.18553399337,4174.86520114746 5589.62588274528,4186.41018841132 5606.81829407481,4198.16324386377 5623.73610832158,4210.10915923153 5640.35516793276,4222.23383594635 5656.65374404712,4234.52443943471 5672.61246512223,4246.96953646152 5688.21424579587,4259.55921353453 5703.4442143981,4272.28517468344 5718.28963775932,4285.14081724452 5732.73984218899,4298.12128460385 5746.78612972886,4311.22349517754 5760.42168900986,4324.44614722972 5773.6415002627,4337.78969944722 5786.44223424614,4351.25632749864 5798.82214506299,4364.84985710404 5810.78095702986,4378.57567442447 5822.31974595154,4392.44061484752 5833.44081532397,4406.45283149269 5844.1475681488,4420.62164498635 5854.44437518759,4434.9573762592 5864.33644061312,4449.47116429673 5873.8296661296,4464.17477092495 5882.93051473007,4479.08037483714 5891.64587533991,4494.20035716238 5899.98292965807,4509.54708094176 5907.94902255298,4525.13266691362 5915.55153739737,4540.96876801308 5922.79777773673,4557.06634496533 5929.69485667825,4573.43544529469 5936.24959536264,4590.08498798421 5942.46843183979,4607.02255590288 5948.35734161185,4624.25419797086 5953.92177103387,4641.784242858 5959.16658467476,4659.61512580867 5964.09602763947,4677.74722995762 5968.71370373886,4696.17874324947 5973.02257026819,4714.90553179935 5977.02495001855,4733.92103023723 5980.72256100082,4753.21614926484 5984.11656420938,4772.77920032515 5987.20762959495,4792.59583694229 5989.99602025418,4812.64901193723 5992.48169468039,4832.91894936573 5994.66442675631,4853.38312966185 5996.54394300901,4874.01628610736 5998.12007649109,4894.79041038813 5999.39293650332,4915.67476464703 6000.36309323454,4936.63589710272 6001.03177626831,4957.63765798094 6001.40108579399,4978.6412122019 6001.4742152669,4999.60504499114 6001.25568419025,5020.48495633572 6000.75157964432,5041.23403999812 5999.96980516834,5061.80264263286 5998.92033561284,5082.13829843101 5997.61547662648,5102.18563465145 5996.07012752656,5121.88624339095 5994.30204643044,5141.1785150051 5992.33211669849,5159.9974287239 5990.18461396437,5178.27429621864 5987.88747330722,5195.93645417447 5985.47255645866,5212.90690231667 5982.97591933947,5229.10388383222 5980.43808069036,5244.44040573215 5977.90429310442,5258.8236974206 5975.42481838868,5272.15460658283 5973.05520988577,5284.32693248382 5970.85660517722,5295.22669789174 5968.89603347374,5304.7313621135 5967.24674298023,5312.70897906342 5965.98855460902,5319.01730588914 5965.20824961037,5323.50286946073 5965,5326 5965,5326 6571,5676 6571,5676 6577.70656337851,5658.56449563395 6584.64846836102,5639.04565857228 6591.73168012098,5617.61518640481 6598.87011929354,5594.43233069574 6605.98581584453,5569.64462227952 6613.00919651854,5543.38851704568 6619.87943540746,5515.78997686007 6626.54480939614,5486.96499843688 6632.96301132932,5457.02010128243 6639.10138376025,5426.05278427122 6644.93704514179,5394.15195898094 6650.4568883624,5361.39836660132 6655.65743866286,5327.86498403446 6660.54456425009,5293.61742371757 6665.13303840088,5258.71433071684 6669.44595657114,5223.20777975721 6673.51401604503,5187.14367406407 6677.37466901699,5150.56214719122 6681.07116274865,5113.49796839331 6684.65148262161,5075.98095156192 6688.16721556319,5038.03636728094 6691.67235249519,4999.68535716203 6695.22204918685,4960.94534929116 6698.87136522214,4921.83047334857 6702.67400075589,4882.35197375106 6706.68105036989,4842.51861900542 6710.93979268481,4802.33710534866 6715.4925334705,4761.81245268294 6720.37551885877,4720.9483907845 6725.61793393079,4679.74773377493 6731.24100045649,4638.21274088485 6737.25718593399,4596.34546161194 6743.66953434154,4554.14806347271 6750.47112719894,4511.62314066932 6757.64468166514,4468.77400213364 6765.16229049691,4425.60493756948 6772.98530678402,4382.12146028696 6781.06437447893,4338.33052580727 6789.33960387493,4294.24072541021 6797.74088937323,4249.86245399633 6806.18836513609,4205.20805184076 6814.59299256304,4160.29192002171 6822.85727196809,4115.13060951286 6830.8760693891,4069.74288413347 6838.53754813956,4024.14975774981 6845.7241935279,3978.37450631608 6852.31391813056,3932.44265553001 6858.18123412036,3886.38194505665 6863.19847842784,3840.22227044142 6867.23707595665,3793.99560399009 6870.16882568912,3747.73589603664 6871.86719430679,3701.47895815032 6872.20860191701,3655.26232994759 6871.07368461869,3609.12513127528 6868.34851895963,3563.10790161404 6863.92579383043,3517.25242861877 6857.70591600417,3471.60156776201 6849.5980363609,3426.19905507881 6839.52098482656,3381.08931502653 6827.40410319968,3336.31726546969 6813.18796632708,3291.92812177966 6796.8249835134,3247.96720200079 6778.27987359561,3204.47973497934 6757.53000877257,3161.51067327937 6734.56562403514,3119.10451262159 6709.38989088158,3077.30511947704 6682.01885590808,3036.15556832877 6652.48124681863,2995.69798998188 6620.81815038294,2955.97343215652 6587.08256886534,2917.02173344097 6551.33886343092,2878.88141151372 6513.66209498361,2841.58956636605 6474.137274782,2805.1817990717 6432.85853898553,2769.69214645888 6389.92826298104,2735.15303184426 6345.45613289879,2701.59523179042 6299.55819311891,2669.04785864973 6252.35588976372,2637.53835846002 6203.97513113623,2607.09252356419 6154.54538676765,2577.73451913834 6104.19884714206,2549.48692263397 6053.06966623994,2522.37077497198 6001.29330874524,2496.40564217185 5949.00602305732,2471.60968596187 5896.34446009713,2447.99974179815 5843.44545625802,2425.59140262435 5790.44599668189,2404.39910663421 5737.48337229829,2384.43622725805 5684.69554070235,2365.71516358571 5632.22169692212,2348.24742946577 5580.20305538798,2332.04373958779 5528.78383891955,2317.11409096456 5478.11246423768,2303.46783838863 5428.34290634012,2291.11376264626 5379.63621599709,2280.06013053574 5332.16215557235,2270.31474606078 5286.10090830301,2261.884992557 5241.64480501964,2254.77786596599 5199,2249 5199,2249 " style="fill: rgb(0,0,0); fill-opacity: 0.68503937007874; stroke: rgb(0,0,0); stroke-opacity: 0.68503937007874; stroke-width: 1" />
	<polygon id="20-5765-5673" points="5765,5673 5765,5673 5762.91555770461,5674.36134176227 5759.39705576984,5677.21748312321 5754.54115151338,5681.40327418167 5748.43756056964,5686.76618055874 5741.16968483305,5693.16541788545 5732.81523352585,5700.47114023516 5723.44682481489,5708.563679385 5713.13255777522,5717.33283195423 5701.9365466498,5726.67719162473 5689.91941129638,5736.50352379939 5677.13871945413,5746.7261801969 5663.64937801685,5757.26655101938 5649.50397187445,5768.05255245933 5634.75305009275,5779.01814743778 5619.44536025189,5790.10289758403 5603.62803266525,5801.25154458053 5587.34671696564,5812.41361910502 5570.64567417929,5823.54307570341 5553.56782792332,5834.59795202563 5536.15477876529,5845.54005094834 5518.44678608392,5856.33464419694 5500.48272197541,5866.95019616254 5482.30000186907,5877.35810668867 5463.934496556,5887.53247167774 5445.4204303031,5897.4498604382 5426.79026962935,5907.08910876066 5408.07460716832,5916.43112677503 5389.30204483809,5925.45872070112 5370.49908029202,5934.15642766204 5351.69000033915,5942.51036278387 5332.89678470615,5950.50807785612 5314.13902316968,5958.13843087597 5295.43384872451,5965.39146584475 5276.79588907369,5972.25830222879 5258.23723833775,5978.73103353771 5239.76745048418,5984.80263451229 5221.3935555823,5990.46687645083 5203.12009959446,5995.71825023859 5184.94920802787,6000.55189667815 5166.88067339438,6004.96354375056 5148.9120660635,6008.94945046829 5131.03886774798,6012.50635701003 5113.25462653614,6015.6314408561 5095.55113208201,6018.32227867054 5077.91860928707,6020.57681370308 5060.34592855671,6022.39332850948 5042.82083049344,6023.77042281501 5025.33016269851,6024.70699637039 5007.8601261958,6025.20223667473 4990.3965288666,6025.25561146418 4972.92504319437,6024.86686589027 4955.43146556249,6024.03602433611 4937.90197432853,6022.76339684387 4920.3233839137,6021.04959015212 4902.68339219737,6018.89552336728 4884.97081859211,6016.30244831994 4867.1758302954,6013.27197468327 4849.29015436757,6009.80609995896 4831.30727347228,6005.9072444644 4813.22260333263,6001.57829148431 4795.03365020295,5996.82263278087 4776.74014693054,5991.64421968817 4758.34416648086,5986.04762004961 4739.85021212249,5980.03808129178 4721.26528381093,5973.6215999638 4702.5989206704,5966.80499810892 4683.86321984771,5959.5960068741 4665.07283239719,5952.00335780412 4646.24493724891,5944.03688230942 4627.3991947077,5935.70761984139 4608.55768132603,5927.02793535534 4589.74480838334,5918.01164668979 4570.98722658428,5908.6741625415 4552.31371995326,5899.03263176841 4533.75509224756,5889.10610480765 4515.34404953056,5878.91570805348 4497.11508283506,5868.48483209948 4479.10435509735,5857.83933481173 4461.34959675084,5847.00776026467 4443.89001452573,5836.02157463819 4426.76621810301,5824.91542024505 4410.02016930899,5813.72738893003 4393.69515850416,5802.49931615766 4377.83581270968,5791.27709718367 4362.48813981828,5780.11102678629 4347.69961294654,5769.05616411742 4333.51929859298,5758.17272432045 4319.99803176452,5747.52649865147 4307.18864061144,5737.18930493326 4295.14622236188,5727.23947026741 4283.92847145909,5717.76234802866 4273.59605977095,5708.85087126788 4264.21306755046,5700.6061447549 4255.84746246866,5693.13807800101 4248.57162250725,5686.56606171237 4242.46289677681,5681.01969024034 4237.60419640701,5676.63953271254 4234.0846055263,5673.57795565 4232,5672 4232,5672 1959,6985 1959,6985 1997.44741522513,7035.3656978097 2038.26527914056,7086.33649192176 2081.33887242266,7137.7326733771 2126.55971201585,7189.38615422994 2173.8246152004,7241.13856245434 2223.03470308788,7292.83921246588 2274.09438768035,7344.34306410406 2326.91037944869,7395.50876268514 2381.39074582673,7446.19683438275 2437.44404505233,7496.26809462803 2494.9785543819,7545.58231234692 2553.90160683639,7593.99715958089 2614.11904627235,7641.36746427553 2675.53480668698,7687.54477368549 2738.05061823252,7732.37722684562 2801.56583940752,7775.70972681595 2865.97741228481,7817.38439684141 2931.1799354033,7857.24129909508 2997.06584706942,7895.11939022295 3063.52571025963,7930.85768440139 3130.44858906631,7964.29659198532 3197.72250566165,7995.27939999462 3265.23496604788,8023.65385959101 3332.87354239523,8049.27384527142 3400.52649952132,8072.00105068392 3468.08345301802,8091.70668669612 3535.43604666451,8108.27314855517 3602.47863706031,8121.59562061633 3669.10897385178,8131.58358912696 3735.22886449224,8138.16223588432 3800.74481315435,8141.2736881863 3865.56862418595,8140.87810331671 3929.61796135413,8136.95456880444 3992.81685504083,8129.50180282475 4055.09615052344,8118.53864232944 4116.39389148277,8104.10430976015 4176.65563391515,8086.25845247926 4235.83468667403,8065.08095230919 4293.89227591749,8040.67150577117 4350.79763178117,8013.14897872593 4406.52799662138,7982.65054211581 4461.06855517094,7949.33059835872 4514.41228791203,7913.35951062996 4566.55974988811,7874.9221497614 4617.51877804348,7834.21627577178 4667.3041309867,7791.45077309651 4715.9370658182,7746.84376039625 4763.44485733608,7700.62059737597 4809.86026553369,7653.0118123285 4855.22095782276,7604.25097512036 4899.56889285451,7554.57254105406 4942.94967316379,7504.20969146717 4985.41187412737,7453.39219705869 5027.00635690363,7402.34432976965 5067.78557310796,7351.28284858659 5107.80286897452,7300.41508388855 5147.11179666142,7249.93714392589 5185.76544017411,7200.03226570995 5223.8157631123,7150.86933101743 5261.31298509103,7102.60156638387 5298.30499324999,7055.36544389125 5334.83679475025,7009.27979726251 5370.9500155683,6964.44516527907 5406.68245023887,6920.94337185708 5442.06766647553,6878.83734927798 5477.13466781825,6838.17120809271 5511.90761662629,6798.97055413619 5546.40561886045,6761.24304992656 5580.6425711897,6724.97921451649 5614.62707002087,6690.15345264279 5648.3623810974,6656.7253008247 5681.84646735289,6624.6408749256 5715.07207174893,6593.83450066117 5748.02685088511,6564.23050564863 5780.69355425462,6535.74514889417 5813.05024314406,6508.28866115398 5845.07054235394,6481.76736742838 5876.72391716113,6456.08586100937 5907.97596727057,6431.14919705349 5938.78872892645,6406.86507264841 5969.12097588778,6383.14595984263 5998.92850963781,6359.91115817171 6028.16442900655,6337.08873390389 6056.77936935976,6314.61731460768 6084.72170166441,6292.44770977943 6111.93768209814,6270.54433122954 6138.3715434493,6248.88639078164 6163.96552037508,6227.46885766374 6188.65980166776,6206.30316383802 6212.39240404722,6185.41765250452 6235.09896367125,6164.85777320291 6256.71244355933,6144.68603640666 6277.16275748198,6124.98175134012 6296.37631360191,6105.84058303594 6314.27548429025,6087.37397847699 6330.77801210492,6069.70852712339 6345.79636593741,6052.98533830307 6359.23706583329,6037.35953693975 6371,6023 6371,6023 " style="fill: rgb(0,0,0); fill-opacity: 0.68503937007874; stroke: rgb(0,0,0); stroke-opacity: 0.68503937007874; stroke-width: 1" />
	<polygon id="21-5132-3999" points="5132,3999 4999,4000 4865,4000 4865,2250 4999,2250 5132,2249 " style="fill: rgb(0,0,0); fill-opacity: 1.0; stroke: rgb(0,0,0); stroke-opacity: 1.0; stroke-width: 1" />
	<polygon id="22-5799-5615" points="5799,5615 5866,5500 5932,5384 6538,5734 6472,5850 6405,5965 " style="fill: rgb(0,0,0); fill-opacity: 1.0; stroke: rgb(0,0,0); stroke-opacity: 1.0; stroke-width: 1" />
	<polygon id="23-4066-5383" points="4066,5383 4133,5499 4199,5614 1926,6927 1860,6812 1793,6696 " style="fill: rgb(0,0,0); fill-opacity: 1.0; stroke: rgb(0,0,0); stroke-opacity: 1.0; stroke-width: 1" />
	<polygon id="24-1793-6696" points="1793,6696 1860,6812 1926,6927 1168,7364 1102,7249 1035,7133 " style="fill: rgb(0,0,0); fill-opacity: 1.0; stroke: rgb(0,0,0); stroke-opacity: 1.0; stroke-width: 1" />
	<polygon id="25-6405-5965" points="6405,5965 6472,5850 6538,5734 8963,7134 8897,7250 8830,7365 " style="fill: rgb(0,0,0); fill-opacity: 1.0; stroke: rgb(0,0,0); stroke-opacity: 1.0; stroke-width: 1" />
	<polygon id="26-5132-2249" points="5132,2249 4999,2250 4865,2250 4865,500 4999,500 5132,499 " style="fill: rgb(0,0,0); fill-opacity: 1.0; stroke: rgb(0,0,0); stroke-opacity: 1.0; stroke-width: 1" />
	<!--
	Generated using the Perl SVG Module V2.84
	by Ronan Oger
	Info: http://www.roitsystems.com/
	-->
</svg>